<?xml version="1.0" standalone="no"?>
<!DOCTYPE svg PUBLIC "-//W3C//DTD SVG 20010904//EN"
 "http://www.w3.org/TR/2001/REC-SVG-20010904/DTD/svg10.dtd">
<svg version="1.0" xmlns="http://www.w3.org/2000/svg"
 width="125.000000pt" height="125.000000pt" viewBox="0 0 125.000000 125.000000"
 preserveAspectRatio="xMidYMid meet">
<metadata>
Created by potrace 1.11, written by Peter Selinger 2001-2013
</metadata>
<g transform="translate(0.000000,125.000000) scale(0.100000,-0.100000)"
fill="#000000" stroke="none">
<path d="M490 1109 c-80 -15 -181 -73 -243 -138 -59 -62 -120 -173 -131 -241
-6 -33 -2 -40 42 -83 l49 -48 6 59 c15 137 92 253 211 315 57 30 67 32 166 32
84 0 111 -4 133 -17 14 -10 36 -18 48 -18 32 0 127 -104 161 -177 18 -38 32
-88 36 -128 l7 -66 49 50 49 50 -17 64 c-36 132 -126 241 -250 302 -105 52
-205 66 -316 44z m146 -45 c-1 -26 -3 -27 -68 -29 -61 -3 -68 -1 -68 16 0 10
-1 22 -2 27 -5 20 33 11 41 -10 l8 -23 7 23 c9 26 24 29 34 5 4 -10 13 -19 21
-21 12 -3 12 -1 1 13 -12 14 -12 18 0 25 20 12 27 5 26 -26z m54 16 c0 -5 -6
-10 -12 -10 -9 0 -9 -3 1 -9 11 -7 10 -10 -5 -14 -17 -4 -17 -5 2 -6 14 -1 24
6 27 20 7 27 30 20 37 -11 5 -20 7 -21 19 -6 18 22 32 10 25 -22 l-6 -27 21
25 c22 27 28 21 11 -10 -14 -26 9 -39 26 -15 8 10 17 16 20 12 4 -4 1 -13 -5
-21 -7 -8 -10 -20 -6 -26 11 -17 -5 -11 -52 20 -24 17 -48 30 -54 30 -5 0 -27
6 -49 12 -30 10 -40 18 -40 34 0 11 3 24 7 27 10 11 33 8 33 -3z m-219 -38 c7
-17 6 -23 -3 -20 -7 3 -21 -4 -32 -14 -27 -24 -41 -23 -54 7 -10 21 -9 26 8
35 12 6 20 7 20 1 0 -5 -6 -12 -12 -14 -7 -3 -4 -6 7 -6 17 -1 17 -3 5 -11
-13 -8 -12 -10 4 -10 14 0 17 5 12 24 -11 42 30 50 45 8z m-98 -27 c4 -8 2
-17 -3 -20 -5 -3 -7 -12 -3 -20 9 -24 -5 -17 -23 11 -15 22 -15 27 -3 35 20
12 26 11 32 -6z m-23 -58 c0 -6 -9 -2 -20 8 -11 10 -20 23 -20 28 0 6 9 2 20
-8 11 -10 20 -23 20 -28z m-20 -18 c0 -5 -7 -6 -15 -3 -11 5 -14 2 -9 -12 6
-15 2 -14 -20 6 -26 23 -27 25 -7 28 13 2 18 9 15 20 -4 12 1 9 15 -7 12 -13
21 -27 21 -32z m595 10 c4 -6 4 -13 0 -17 -3 -3 -10 0 -14 7 -7 10 -10 10 -16
1 -11 -17 15 -31 37 -19 23 12 25 -6 2 -19 -24 -13 -8 -35 16 -22 29 16 35 12
14 -11 -18 -20 -18 -20 11 -14 l30 7 -23 -17 c-25 -18 -52 -14 -52 9 0 7 -7
17 -16 20 -9 4 -14 13 -10 22 3 8 2 13 -3 10 -5 -3 -14 1 -21 9 -10 12 -10 18
0 30 15 18 36 20 45 4z m-654 -19 c21 -12 25 -35 8 -45 -17 -11 -25 5 -9 16
12 8 10 9 -7 4 -22 -6 -39 8 -28 25 8 13 12 12 36 0z m-30 -60 c5 0 9 -9 9
-20 0 -11 -4 -20 -10 -20 -5 0 -10 -9 -10 -19 0 -29 -16 -34 -47 -16 l-28 16
28 -4 c34 -5 45 10 21 27 -21 16 -12 51 12 42 9 -3 20 -6 25 -6z m773 -46 c6
-17 -18 -43 -40 -44 -11 0 -29 30 -22 35 10 7 44 24 49 25 4 0 10 -7 13 -16z"/>
<path d="M205 860 c-3 -6 1 -13 10 -16 21 -9 26 -2 10 13 -9 8 -16 9 -20 3z"/>
<path d="M523 980 c-45 -9 -111 -41 -154 -73 -49 -35 -136 -177 -110 -177 5 0
11 10 15 23 3 12 20 45 38 72 31 47 33 48 39 24 7 -23 7 -23 8 -1 1 12 7 22
14 22 9 0 9 2 -1 9 -10 6 0 16 35 38 72 46 114 56 210 51 46 -2 78 -1 70 4
-23 13 -119 18 -164 8z"/>
<path d="M860 858 c0 -4 14 -35 31 -69 32 -63 50 -175 35 -215 -6 -15 -9 -15
-30 5 -18 17 -25 19 -29 9 -3 -7 -6 13 -6 44 -1 31 -6 68 -13 82 -12 27 -11
27 -102 4 -26 -6 -42 -6 -49 1 -16 16 -41 -7 -26 -25 9 -11 16 -11 39 1 32 16
50 5 50 -32 0 -17 -7 -23 -35 -29 -19 -3 -35 -10 -35 -15 0 -5 -5 -8 -12 -6
-7 1 -14 -11 -18 -28 -6 -37 -38 -45 -65 -15 -20 22 -55 26 -72 9 -8 -8 -13
-8 -17 0 -9 14 -43 14 -52 0 -3 -6 1 -10 12 -9 31 4 44 1 44 -9 0 -13 -67 -2
-102 15 -39 20 -45 18 -40 -15 4 -26 1 -29 -32 -35 -55 -10 -73 5 -81 68 -4
30 -4 59 0 65 3 6 1 11 -4 11 -12 0 -14 -60 -5 -109 8 -41 35 -55 90 -46 38 5
44 9 44 31 0 29 1 29 50 4 44 -22 54 -25 45 -10 -3 6 -2 10 4 10 15 0 23 -18
9 -22 -9 -3 -9 -6 -1 -11 7 -5 17 4 25 19 21 44 43 52 71 26 21 -20 34 -22
129 -22 85 0 107 -3 112 -15 7 -18 46 -20 47 -2 1 6 2 17 4 22 1 6 3 14 3 19
1 5 11 1 23 -10 31 -28 41 -3 36 96 -3 68 -9 95 -30 135 -30 58 -47 83 -47 73z
m-3 -330 c-3 -8 -6 -5 -6 6 -1 11 2 17 5 13 3 -3 4 -12 1 -19z"/>
<path d="M377 830 c-3 -11 -2 -20 2 -20 3 0 12 9 19 20 10 16 10 20 -2 20 -7
0 -16 -9 -19 -20z"/>
<path d="M670 828 c0 -13 5 -30 10 -38 8 -11 10 -7 8 18 -3 38 -18 55 -18 20z"/>
<path d="M760 846 c0 -2 7 -7 16 -10 8 -3 12 -2 9 4 -6 10 -25 14 -25 6z"/>
<path d="M600 826 c-16 -16 -12 -39 6 -32 9 3 24 6 34 6 12 0 18 7 17 19 -1
20 -40 24 -57 7z"/>
<path d="M403 805 c-8 -23 0 -24 20 -3 14 15 15 18 2 18 -9 0 -18 -7 -22 -15z"/>
<path d="M422 770 c-7 -12 -8 -20 -2 -20 5 0 10 5 10 10 0 6 10 10 23 10 18 0
19 2 7 10 -21 13 -23 13 -38 -10z"/>
<path d="M437 743 c-13 -13 -7 -25 7 -14 7 6 22 8 31 4 13 -4 16 -3 11 5 -8
13 -39 16 -49 5z"/>
<path d="M447 706 c-16 -13 -16 -14 5 -19 12 -4 24 -4 27 -2 2 3 -1 5 -7 5 -7
0 -12 5 -12 11 0 6 9 8 23 4 17 -5 19 -4 7 4 -19 13 -21 13 -43 -3z"/>
<path d="M465 613 c-20 -15 -19 -15 4 -10 14 4 32 1 40 -6 9 -6 8 -2 -3 11
-11 12 -20 22 -20 22 -1 0 -10 -8 -21 -17z"/>
<path d="M534 549 c-38 -42 -10 -124 34 -100 28 15 36 46 22 81 -15 37 -34 43
-56 19z"/>
<path d="M398 484 c2 -39 -1 -71 -7 -77 -8 -8 -11 5 -11 47 0 49 -3 57 -16 52
-9 -3 -21 -6 -28 -6 -9 0 -15 -23 -19 -70 -3 -38 -13 -82 -21 -97 -13 -26 -36
-108 -36 -132 0 -6 20 -11 46 -11 l47 0 -5 90 c-3 50 -2 90 2 90 4 0 15 -40
25 -90 l17 -90 38 0 37 0 11 133 c17 191 19 180 -33 205 -25 12 -47 22 -48 22
-1 0 0 -30 1 -66z"/>
<path d="M890 524 c0 -37 -41 -123 -69 -146 -21 -18 -28 -52 -12 -62 4 -3 6
-16 4 -30 -3 -13 3 -40 12 -60 20 -41 53 -55 97 -38 15 5 37 8 48 5 19 -5 19
-4 3 38 -22 57 -20 55 -44 34 -22 -21 -51 -12 -57 19 -3 12 4 16 26 16 25 0
32 6 42 33 6 17 13 59 16 92 6 59 5 61 -30 94 l-36 35 0 -30z m25 -143 c-3
-12 -11 -19 -16 -16 -5 4 -3 14 3 25 15 24 22 19 13 -9z"/>
<path d="M55 516 c-9 -13 -18 -40 -22 -59 -4 -29 -1 -40 20 -61 25 -25 25 -26
6 -36 -23 -13 -24 -32 -3 -115 17 -68 23 -75 44 -50 11 13 15 13 41 0 40 -21
86 -19 99 4 16 31 12 167 -5 201 -9 17 -20 30 -26 30 -8 0 -8 4 0 14 7 8 16
28 21 46 10 36 -5 49 -39 30 -16 -8 -28 -7 -50 5 -42 21 -68 19 -86 -9z m50
-86 c-3 -5 -13 -10 -21 -10 -8 0 -14 5 -14 10 0 6 9 10 21 10 11 0 17 -4 14
-10z m56 -60 c28 -16 23 -32 -6 -18 -14 6 -25 15 -25 20 0 11 7 10 31 -2z"/>
<path d="M987 533 c-4 -3 -7 -34 -6 -67 0 -34 3 -55 6 -48 11 27 21 9 28 -53
3 -35 3 -71 -2 -79 -5 -9 -7 -34 -5 -56 l4 -40 45 0 45 0 -7 36 c-3 20 -12 45
-18 55 -6 10 -8 21 -5 25 14 13 27 -8 39 -61 l12 -55 48 0 48 0 -10 33 c-5 17
-13 41 -19 52 -5 11 -14 33 -20 48 -6 16 -19 31 -30 34 -25 7 -25 7 2 43 20
28 38 104 30 128 -4 13 -173 18 -185 5z m113 -108 c0 -22 -37 -38 -44 -19 -10
27 -7 34 19 34 15 0 25 -6 25 -15z"/>
<path d="M626 522 c-9 -14 7 -131 17 -129 14 3 29 -79 23 -123 -3 -19 -3 -45
0 -58 6 -19 13 -22 60 -22 l54 0 -18 38 c-9 20 -23 43 -29 50 -20 21 -15 35
23 66 40 31 64 79 64 125 0 58 -4 61 -100 61 -49 0 -91 -4 -94 -8z m118 -101
c3 -5 -3 -20 -13 -32 -18 -22 -20 -22 -26 -6 -13 33 22 67 39 38z"/>
<path d="M562 421 l-33 -16 6 -80 c4 -56 3 -75 -4 -65 -8 11 -11 5 -11 -27 l0
-43 43 0 42 0 1 125 c1 69 -1 124 -5 124 -3 -1 -21 -9 -39 -18z"/>
</g>
</svg>
